# xmcd CD database file
#
# Track frame offsets:
#	182
#	14850
#	28878
#	41590
#	54999
#	68107
#	80410
#	93842
#	107286
#	122669
#	134687
#	147732
#	160032
#	171983
#	183315
#	196442
#	207669
#	219390
#	231677
#	245671
#	256715
#	270876
#
# Disc length: 3862 seconds
#
# Revision: 0
# Processed by: cddbd v1.4PL0 Copyright (c) Steve Scherf et al.
# Submitted via: CDex 1.50Beta7
#
DISCID=470f1416
DTITLE=Miles Davis - The Early Years 1947-1950 - Volume 2
DYEAR=2001
DGENRE=Jazz
TTITLE0=Charlie Parker Quintet (11/04/47): My Old Flame
TTITLE1=Charlie Parker Quintet (11/04/47): Out Of Nowhere
TTITLE2=Charlie Parker Quintet (11/04/47): Don't Blame Me
TTITLE3=Charlie Parker Sextet (12/17/49): Drifting On A Reed
TTITLE4=Charlie Parker Sextet (12/17/49): Quasimodo
TTITLE5=Charlie Parker Sextet (12/17/49): Charlie's Wig
TTITLE6=Charlie Parker Sextet (12/17/49): Bird Feathers
TTITLE7=Charlie Parker Sextet (12/17/49): Crazeology
TTITLE8=Charlie Parker Sextet (12/17/49): How Deep Is The Ocean
TTITLE9=Charlie Parker All Stars (12/21/47): Another Hair-Do
TTITLE10=Charlie Parker All Stars (12/21/47): Bluebird
TTITLE11=Charlie Parker All Stars (12/21/47): Klaunstance
TTITLE12=Charlie Parker All Stars (12/21/47): Bird Gets The Worm
TTITLE13=Charlie Parker All Stars (09/18/48): Barbados
TTITLE14=Charlie Parker All Stars (09/18/48): Ah-Leu-Cha
TTITLE15=Charlie Parker All Stars (09/18/48): Constellation
TTITLE16=Charlie Parker All Stars (09/21/48): Perhaps
TTITLE17=Charlie Parker All Stars (09/21/48): Marmaduke
TTITLE18=Charlie Parker All Stars (09/21/48): Steeple Chase
TTITLE19=Charlie Parker All Stars (09/21/48): Merry-Go-Round
TTITLE20=Metronome All Stars (01/03/49): Overtime
TTITLE21=Metronome All Stars (01/03/49): Victory Ball
EXTD=YEAR: 2001
EXTT0=
EXTT1=
EXTT2=
EXTT3=
EXTT4=
EXTT5=
EXTT6=
EXTT7=
EXTT8=
EXTT9=
EXTT10=
EXTT11=
EXTT12=
EXTT13=
EXTT14=
EXTT15=
EXTT16=
EXTT17=
EXTT18=
EXTT19=
EXTT20=
EXTT21=
PLAYORDER=
